<?xml version="1.0"?>
<svg width="669.498" height="113.073" xmlns="http://www.w3.org/2000/svg">
 <g>
  <title>Layer 1</title>
  <g id="&#22270;&#23618;_1">
   <g>
    <path d="m162.268997,89.331001c-0.992996,5.873001 -3.210007,11.153 -6.653,15.841003c-3.473999,4.532997 -7.009995,6.799995 -10.608002,6.799995h-47.640999l14.608002,-90.331001h20.377998l-3.628998,22.408997h27.263992c3.473007,0 6.234009,2.345001 8.281006,7.032001c2.046997,4.533001 2.621002,9.735001 1.722,15.608006l-3.722,22.640999zm-16.79599,-22.640999c0.464996,-2.937004 0.201004,-5.536999 -0.791,-7.805c-0.992996,-2.265999 -2.373001,-3.398998 -4.141006,-3.398998h-13.630997l-7.304001,45.280994h13.585007c1.76799,0 3.519989,-1.158997 5.256989,-3.477997c1.768005,-2.420998 2.88501,-5.072998 3.350006,-7.959l3.675003,-22.639999z" fill="#000000"/>
    <path d="m229.962006,89.331001c-0.929993,5.821999 -3.147995,11.101997 -6.653,15.841003c-3.473999,4.532997 -6.994995,6.799995 -10.561005,6.799995h-34.009995c-3.660004,0 -6.466995,-2.240997 -8.421005,-6.723c-2.016998,-4.738998 -2.542999,-10.044998 -1.582001,-15.917999l3.722,-22.640999c0.961014,-5.923004 3.14801,-11.127003 6.560013,-15.608002c3.472992,-4.688 7.024994,-7.032001 10.653992,-7.032001h34.056c3.473007,0 6.234009,2.345001 8.281006,7.032001c2.046997,4.533001 2.621002,9.735001 1.720993,15.608002l-3.766998,22.640999zm-16.749008,-22.640999c0.403,-2.937004 0.139999,-5.536999 -0.791,-7.805c-0.992996,-2.265999 -2.373001,-3.398998 -4.141006,-3.398998h-6.885986c-0.869003,0 -1.768005,0.297001 -2.698013,0.889c-0.931,0.592999 -1.798996,1.403999 -2.604996,2.433998c-0.806992,1.031002 -1.505005,2.229 -2.093994,3.594002c-0.589005,1.365002 -0.977005,2.795002 -1.16301,4.287998l-3.722,22.640999c-0.185989,1.495003 -0.201996,2.924004 -0.04599,4.289001c0.154999,1.365005 0.457001,2.576004 0.906998,3.631004c0.449005,1.056999 1.022995,1.906998 1.720993,2.550995c0.698013,0.645004 1.496002,0.966003 2.396011,0.966003h6.838989c1.768005,0 3.520004,-1.159004 5.257004,-3.478004c1.768005,-2.420998 2.884995,-5.072998 3.350006,-7.959l3.675995,-22.641998z" fill="#000000"/>
    <path d="m299.609009,89.331001c-0.929993,5.821999 -3.14801,11.101997 -6.652985,15.841003c-3.47403,4.532997 -6.995026,6.799995 -10.561005,6.799995h-34.01001c-3.660004,0 -6.466995,-2.240997 -8.421005,-6.723c-2.016998,-4.738998 -2.542999,-10.044998 -1.582001,-15.917999l3.722,-22.640999c0.961014,-5.923004 3.14801,-11.127003 6.560013,-15.608002c3.472992,-4.688 7.025009,-7.032001 10.654007,-7.032001h34.056c3.472992,0 6.233978,2.345001 8.280975,7.032001c2.046997,4.533001 2.621002,9.735001 1.721008,15.608002l-3.766998,22.640999zm-16.748016,-22.640999c0.402985,-2.937004 0.140015,-5.536999 -0.791016,-7.805c-0.992981,-2.265999 -2.372986,-3.398998 -4.140991,-3.398998h-6.885986c-0.869019,0 -1.768005,0.297001 -2.697998,0.889c-0.931,0.592999 -1.799011,1.403999 -2.605011,2.433998c-0.807007,1.031002 -1.505005,2.229 -2.093994,3.594002c-0.588989,1.365002 -0.97699,2.795002 -1.162994,4.287998l-3.722015,22.640999c-0.186005,1.495003 -0.201996,2.924004 -0.04599,4.289001c0.154999,1.365005 0.457001,2.576004 0.906982,3.631004c0.449005,1.056999 1.02301,1.906998 1.721008,2.550995c0.697998,0.645004 1.496002,0.966003 2.395996,0.966003h6.83902c1.767975,0 3.519989,-1.159004 5.256989,-3.478004c1.768005,-2.420998 2.88501,-5.072998 3.350006,-7.959l3.675995,-22.641998z" fill="#000000"/>
    <path d="m348.321014,95.047997c0.464996,-2.832001 0.200989,-5.459 -0.791016,-7.881004c-0.961975,-2.368996 -2.342987,-3.554993 -4.140991,-3.554993h-13.631989l-4.559998,28.357994h-20.424011l14.608002,-90.331001h20.377991l-8.187988,50.766998h13.584991c0.931,0 1.852997,-0.320007 2.769012,-0.965996c0.914001,-0.644012 1.76001,-1.479012 2.535004,-2.511009c0.774994,-1.029999 1.449005,-2.227997 2.023987,-3.594002c0.572998,-1.363995 1,-2.742996 1.278992,-4.133995l2.745026,-17.153999h20.470978l-2.140991,13.600002c-0.682983,4.224998 -2.109009,8.217999 -4.279999,11.977993c-2.046997,3.709 -4.403992,6.542999 -7.070984,8.5c2.076996,1.905998 3.534973,4.688004 4.372986,8.345001c0.931,3.863998 1.053986,7.831001 0.372009,11.900009l-2.187012,13.599998h-20.471008l2.747009,-16.921997z" fill="#000000"/>
    <path d="m386.145996,111.971001c-3.660004,0 -6.46701,-2.240997 -8.42099,-6.723c-2.016998,-4.738998 -2.542999,-10.044998 -1.582001,-15.917999l3.722992,-22.640999c0.960999,-5.923004 3.147003,-11.127003 6.559998,-15.608002c3.473999,-4.688 7.024994,-7.032001 10.653992,-7.032001h40.803009l-1.813995,11.437h-27.264008c-0.868988,0 -1.768982,0.297001 -2.699005,0.889c-0.929993,0.592999 -1.798981,1.403999 -2.603973,2.433998c-0.808014,1.031002 -1.505005,2.229 -2.094025,3.594002c-0.589996,1.364998 -0.977997,2.794998 -1.162994,4.288002l-3.722992,22.640999c-0.186005,1.495003 -0.201996,2.923996 -0.04599,4.289001c0.153992,1.364998 0.457001,2.575996 0.906982,3.630997c0.449005,1.056999 1.02301,1.906998 1.721008,2.551003c0.697998,0.644997 1.496002,0.965996 2.395996,0.965996h27.21701l-1.768005,11.204002h-40.803009l0,-0.001999z" fill="#000000"/>
    <path d="m481.381989,66.690002c0.464996,-2.937004 0.200989,-5.536999 -0.790985,-7.805c-0.993011,-2.265999 -2.373016,-3.398998 -4.141022,-3.398998h-13.631989l-9.119019,56.484997h-20.423981l14.608002,-90.331001h20.377991l-3.628998,22.409004h27.264008c3.473999,0 6.233978,2.344994 8.281006,7.031998c2.046997,4.533001 2.621002,9.735001 1.721985,15.608002l-7.350983,45.280998h-20.472015l7.306,-45.279999z" fill="#000000"/>
    <path d="m565.405029,89.331001c-0.993042,5.976997 -3.210022,11.255997 -6.653015,15.840996c-3.473999,4.533005 -6.994019,6.800003 -10.561035,6.800003h-34.009949c-3.660034,0 -6.483032,-2.240997 -8.468018,-6.723c-1.985016,-4.531998 -2.497009,-9.838997 -1.535004,-15.917999c0.931,-5.873001 3.147003,-11.100998 6.652985,-15.687004c3.565979,-4.635994 7.117981,-6.953995 10.653992,-6.953995h27.170044c0.123962,-1.493004 0.107971,-2.923004 -0.046021,-4.288002c-0.156006,-1.365002 -0.450012,-2.563 -0.88501,-3.594002c-0.434998,-1.028999 -0.992981,-1.841003 -1.674988,-2.433998c-0.682983,-0.591999 -1.473999,-0.889 -2.372009,-0.889h-27.218018l1.769043,-11.437h40.894958c3.536011,0 6.296997,2.345001 8.282043,7.032001c2.046997,4.532993 2.619995,9.734997 1.720947,15.608002l-3.720947,22.642998zm-32.288025,-11.205002c-0.869019,0 -1.752991,0.308998 -2.651978,0.927002s-1.744019,1.443001 -2.535034,2.473c-0.791016,1.030998 -1.489014,2.228996 -2.093994,3.594002c-0.604004,1.364998 -1.031006,2.769997 -1.278992,4.210999c-0.187012,1.494995 -0.202026,2.923996 -0.046997,4.289001s0.448975,2.575996 0.88501,3.630997c0.43396,1.056999 1,1.906998 1.69696,2.551003c0.697998,0.644997 1.513,0.965996 2.442993,0.965996h6.83905c1.768005,0 3.519958,-1.158997 5.256958,-3.477997c1.799011,-2.369003 2.900024,-5.022003 3.304016,-7.959l1.814026,-11.204002h-13.632019l0,-0.000999z" fill="#000000"/>
    <path d="m581.130981,44.049h20.377991l-10.979004,67.922001h-20.377991l10.979004,-67.922001zm24.937012,-28.126999c-0.807007,4.482 -2.481995,8.423 -5.023987,11.823c-2.605042,3.4 -5.242004,5.1 -7.908997,5.1c-2.605042,0 -4.716003,-1.700001 -6.328003,-5.1c-1.458008,-3.605 -1.830017,-7.546 -1.116028,-11.823c0.651001,-4.43 2.264038,-8.345 4.838989,-11.745c2.63501,-3.450001 5.318054,-5.177001 8.048035,-5.177001c2.666992,0 4.713989,1.727 6.140991,5.177c1.612,3.246 2.062012,7.161 1.348999,11.745001z" fill="#000000"/>
    <path d="m647.567993,66.690002c0.465027,-2.937004 0.200989,-5.537003 -0.791016,-7.805004c-0.992981,-2.265999 -2.372986,-3.398998 -4.140991,-3.398998h-13.631958l-9.119019,56.485001h-20.424011l10.979004,-67.922001h47.641968c3.47406,0 6.234009,2.345001 8.281006,7.032001c2.046997,4.532997 2.621033,9.735001 1.722046,15.608002l-7.352051,45.280998h-20.470947l7.305969,-45.279999l0,0z" fill="#000000"/>
   </g>
   <path d="m156.371994,56.254002" fill="#000000"/>
  </g>
 </g>
</svg>